<?xml version="1.0" encoding="UTF-8"?><svg xmlns="http://www.w3.org/2000/svg" xmlns:xlink="http://www.w3.org/1999/xlink" contentScriptType="text/ecmascript" width="375pt" zoomAndPan="magnify" contentStyleType="text/css" viewBox="0 0 375 374.999991" height="374.999991pt" preserveAspectRatio="xMidYMid meet" version="1.2"><defs><g/></defs><g xml:id="surface1" id="surface1"><rect x="0" width="375" y="0" height="374.999991" style="fill:rgb(100%,100%,100%);fill-opacity:1;stroke:none;"/><rect x="0" width="375" y="0" height="374.999991" style="fill:rgb(100%,100%,100%);fill-opacity:1;stroke:none;"/><rect x="0" width="375" y="0" height="374.999991" style="fill:rgb(100%,100%,100%);fill-opacity:1;stroke:none;"/><g style="fill:rgb(100%,0%,0%);fill-opacity:1;"><g transform="translate(78.650983, 318.65181)"><path style="stroke:none;" d="M 120.671875 0 L 23.8125 0 L 24.21875 -3.96875 L 28.96875 -3.96875 C 35.851562 -3.96875 41.742188 -6.347656 46.640625 -11.109375 C 51.535156 -15.878906 54.113281 -21.703125 54.375 -28.578125 L 54.375 -249.265625 C 54.113281 -256.148438 51.535156 -261.972656 46.640625 -266.734375 C 41.742188 -271.492188 35.851562 -273.875 28.96875 -273.875 L 24.21875 -273.875 L 23.8125 -277.84375 L 102.796875 -277.84375 C 130.054688 -277.84375 151.226562 -271.820312 166.3125 -259.78125 C 181.394531 -247.738281 188.9375 -231.664062 188.9375 -211.5625 C 188.9375 -195.6875 184.703125 -182.519531 176.234375 -172.0625 C 167.765625 -161.613281 157.441406 -154.671875 145.265625 -151.234375 C 166.171875 -148.054688 182.707031 -139.453125 194.875 -125.421875 C 207.050781 -111.398438 213.140625 -93.738281 213.140625 -72.4375 C 213.140625 -51.132812 205.003906 -33.734375 188.734375 -20.234375 C 172.460938 -6.742188 149.773438 0 120.671875 0 Z M 80.171875 -14.6875 L 119.078125 -14.6875 C 119.335938 -14.6875 119.601562 -14.6875 119.875 -14.6875 C 139.976562 -14.6875 155.585938 -20.109375 166.703125 -30.953125 C 177.816406 -41.804688 183.375 -57.289062 183.375 -77.40625 C 183.375 -88.78125 181.453125 -98.765625 177.609375 -107.359375 C 173.773438 -115.960938 168.953125 -122.78125 163.140625 -127.8125 C 147.785156 -140.507812 124.765625 -146.859375 94.078125 -146.859375 C 94.078125 -146.859375 93.941406 -146.859375 93.671875 -146.859375 L 93.671875 -150.4375 C 128.597656 -150.4375 149.632812 -163.398438 156.78125 -189.328125 C 158.375 -195.148438 159.171875 -201.632812 159.171875 -208.78125 C 159.171875 -226.769531 154.207031 -240.660156 144.28125 -250.453125 C 134.351562 -260.242188 120 -265.140625 101.21875 -265.140625 L 80.171875 -265.140625 Z M 80.171875 -14.6875 "/></g></g><g style="fill:rgb(0%,100%,100%);fill-opacity:1;"><g transform="translate(63.768634, 318.392034)"><path style="stroke:none;" d="M 120.671875 0 L 23.8125 0 L 24.21875 -3.96875 L 28.96875 -3.96875 C 35.851562 -3.96875 41.742188 -6.347656 46.640625 -11.109375 C 51.535156 -15.878906 54.113281 -21.703125 54.375 -28.578125 L 54.375 -249.265625 C 54.113281 -256.148438 51.535156 -261.972656 46.640625 -266.734375 C 41.742188 -271.492188 35.851562 -273.875 28.96875 -273.875 L 24.21875 -273.875 L 23.8125 -277.84375 L 102.796875 -277.84375 C 130.054688 -277.84375 151.226562 -271.820312 166.3125 -259.78125 C 181.394531 -247.738281 188.9375 -231.664062 188.9375 -211.5625 C 188.9375 -195.6875 184.703125 -182.519531 176.234375 -172.0625 C 167.765625 -161.613281 157.441406 -154.671875 145.265625 -151.234375 C 166.171875 -148.054688 182.707031 -139.453125 194.875 -125.421875 C 207.050781 -111.398438 213.140625 -93.738281 213.140625 -72.4375 C 213.140625 -51.132812 205.003906 -33.734375 188.734375 -20.234375 C 172.460938 -6.742188 149.773438 0 120.671875 0 Z M 80.171875 -14.6875 L 119.078125 -14.6875 C 119.335938 -14.6875 119.601562 -14.6875 119.875 -14.6875 C 139.976562 -14.6875 155.585938 -20.109375 166.703125 -30.953125 C 177.816406 -41.804688 183.375 -57.289062 183.375 -77.40625 C 183.375 -88.78125 181.453125 -98.765625 177.609375 -107.359375 C 173.773438 -115.960938 168.953125 -122.78125 163.140625 -127.8125 C 147.785156 -140.507812 124.765625 -146.859375 94.078125 -146.859375 C 94.078125 -146.859375 93.941406 -146.859375 93.671875 -146.859375 L 93.671875 -150.4375 C 128.597656 -150.4375 149.632812 -163.398438 156.78125 -189.328125 C 158.375 -195.148438 159.171875 -201.632812 159.171875 -208.78125 C 159.171875 -226.769531 154.207031 -240.660156 144.28125 -250.453125 C 134.351562 -260.242188 120 -265.140625 101.21875 -265.140625 L 80.171875 -265.140625 Z M 80.171875 -14.6875 "/></g></g><g style="fill:rgb(0%,0%,0%);fill-opacity:1;"><g transform="translate(71.209807, 318.521922)"><path style="stroke:none;" d="M 120.671875 0 L 23.8125 0 L 24.21875 -3.96875 L 28.96875 -3.96875 C 35.851562 -3.96875 41.742188 -6.347656 46.640625 -11.109375 C 51.535156 -15.878906 54.113281 -21.703125 54.375 -28.578125 L 54.375 -249.265625 C 54.113281 -256.148438 51.535156 -261.972656 46.640625 -266.734375 C 41.742188 -271.492188 35.851562 -273.875 28.96875 -273.875 L 24.21875 -273.875 L 23.8125 -277.84375 L 102.796875 -277.84375 C 130.054688 -277.84375 151.226562 -271.820312 166.3125 -259.78125 C 181.394531 -247.738281 188.9375 -231.664062 188.9375 -211.5625 C 188.9375 -195.6875 184.703125 -182.519531 176.234375 -172.0625 C 167.765625 -161.613281 157.441406 -154.671875 145.265625 -151.234375 C 166.171875 -148.054688 182.707031 -139.453125 194.875 -125.421875 C 207.050781 -111.398438 213.140625 -93.738281 213.140625 -72.4375 C 213.140625 -51.132812 205.003906 -33.734375 188.734375 -20.234375 C 172.460938 -6.742188 149.773438 0 120.671875 0 Z M 80.171875 -14.6875 L 119.078125 -14.6875 C 119.335938 -14.6875 119.601562 -14.6875 119.875 -14.6875 C 139.976562 -14.6875 155.585938 -20.109375 166.703125 -30.953125 C 177.816406 -41.804688 183.375 -57.289062 183.375 -77.40625 C 183.375 -88.78125 181.453125 -98.765625 177.609375 -107.359375 C 173.773438 -115.960938 168.953125 -122.78125 163.140625 -127.8125 C 147.785156 -140.507812 124.765625 -146.859375 94.078125 -146.859375 C 94.078125 -146.859375 93.941406 -146.859375 93.671875 -146.859375 L 93.671875 -150.4375 C 128.597656 -150.4375 149.632812 -163.398438 156.78125 -189.328125 C 158.375 -195.148438 159.171875 -201.632812 159.171875 -208.78125 C 159.171875 -226.769531 154.207031 -240.660156 144.28125 -250.453125 C 134.351562 -260.242188 120 -265.140625 101.21875 -265.140625 L 80.171875 -265.140625 Z M 80.171875 -14.6875 "/></g></g></g></svg>