<?xml version="1.0" encoding="UTF-8"?><svg xmlns="http://www.w3.org/2000/svg" xmlns:xlink="http://www.w3.org/1999/xlink" contentScriptType="text/ecmascript" width="375pt" zoomAndPan="magnify" contentStyleType="text/css" viewBox="0 0 375 374.999991" height="374.999991pt" preserveAspectRatio="xMidYMid meet" version="1.2"><defs><g/></defs><g xml:id="surface1" id="surface1"><path style="fill:none;stroke-width:1;stroke-linecap:round;stroke-linejoin:miter;stroke:rgb(0%,0%,0%);stroke-opacity:1;stroke-miterlimit:4;" d="M 0.500268 -0.000869866 L 139.366326 -0.000869866 " transform="matrix(1.592531,-1.592531,1.59099,1.59099,73.630473,288.872295)"/><path style=" stroke:none;fill-rule:nonzero;fill:rgb(100%,100%,100%);fill-opacity:1;" d="M 37.507812 126.359375 L 337.492188 126.359375 L 337.492188 224.609375 L 37.507812 224.609375 Z M 37.507812 126.359375 "/><g style="fill:rgb(0%,0%,0%);fill-opacity:1;"><g transform="translate(42.398439, 189.309729)"><path style="stroke:none;" d="M 21.28125 0 L 4.203125 0 L 4.265625 -0.703125 L 5.109375 -0.703125 C 6.328125 -0.703125 7.363281 -1.117188 8.21875 -1.953125 C 9.082031 -2.796875 9.539062 -3.828125 9.59375 -5.046875 L 9.59375 -43.953125 C 9.59375 -45.171875 9.148438 -46.195312 8.265625 -47.03125 C 7.378906 -47.875 6.328125 -48.296875 5.109375 -48.296875 L 4.265625 -48.296875 L 4.203125 -49 L 18.125 -49 C 22.9375 -49 26.671875 -47.9375 29.328125 -45.8125 C 31.984375 -43.6875 33.3125 -40.851562 33.3125 -37.3125 C 33.3125 -34.507812 32.566406 -32.1875 31.078125 -30.34375 C 29.585938 -28.5 27.769531 -27.273438 25.625 -26.671875 C 29.3125 -26.109375 32.226562 -24.585938 34.375 -22.109375 C 36.519531 -19.640625 37.59375 -16.523438 37.59375 -12.765625 C 37.59375 -9.015625 36.15625 -5.945312 33.28125 -3.5625 C 30.414062 -1.1875 26.414062 0 21.28125 0 Z M 14.140625 -2.515625 L 21 -2.515625 C 21.039062 -2.515625 21.085938 -2.515625 21.140625 -2.515625 C 24.679688 -2.515625 27.429688 -3.484375 29.390625 -5.421875 C 31.359375 -7.359375 32.34375 -10.101562 32.34375 -13.65625 C 32.34375 -15.65625 32.003906 -17.410156 31.328125 -18.921875 C 30.648438 -20.441406 29.796875 -21.648438 28.765625 -22.546875 C 26.054688 -24.785156 22 -25.90625 16.59375 -25.90625 C 16.59375 -25.90625 16.566406 -25.90625 16.515625 -25.90625 L 16.515625 -26.53125 C 16.566406 -26.53125 16.789062 -26.53125 17.1875 -26.53125 C 17.582031 -26.53125 18.148438 -26.578125 18.890625 -26.671875 C 19.640625 -26.765625 20.476562 -26.925781 21.40625 -27.15625 C 22.34375 -27.394531 23.1875 -27.769531 23.9375 -28.28125 C 24.6875 -28.789062 25.390625 -29.394531 26.046875 -30.09375 C 27.390625 -31.632812 28.0625 -33.929688 28.0625 -36.984375 C 28.0625 -40.046875 27.1875 -42.441406 25.4375 -44.171875 C 23.6875 -45.898438 21.15625 -46.765625 17.84375 -46.765625 L 14.140625 -46.765625 Z M 14.140625 -2.515625 "/></g></g><g style="fill:rgb(0%,0%,0%);fill-opacity:1;"><g transform="translate(83.416201, 189.309729)"><path style="stroke:none;" d="M 5.109375 -0.703125 C 6.328125 -0.703125 7.363281 -1.132812 8.21875 -2 C 9.082031 -2.863281 9.539062 -3.898438 9.59375 -5.109375 L 9.59375 -43.890625 C 9.539062 -45.097656 9.082031 -46.132812 8.21875 -47 C 7.363281 -47.863281 6.328125 -48.296875 5.109375 -48.296875 L 4.203125 -48.296875 L 4.203125 -49 L 19.53125 -49 L 19.53125 -48.296875 L 18.625 -48.296875 C 16.9375 -48.296875 15.648438 -47.570312 14.765625 -46.125 C 14.347656 -45.425781 14.140625 -44.679688 14.140625 -43.890625 L 14.140625 -2.171875 L 24.15625 -2.171875 C 27.601562 -2.171875 30.238281 -2.941406 32.0625 -4.484375 C 33.882812 -6.023438 35.398438 -8.3125 36.609375 -11.34375 L 37.3125 -11.34375 L 33.25 0 L 4.203125 0 L 4.203125 -0.703125 Z M 5.109375 -0.703125 "/></g></g><g style="fill:rgb(0%,0%,0%);fill-opacity:1;"><g transform="translate(122.754051, 189.309729)"><path style="stroke:none;" d="M 11.859375 -42.9375 C 16.503906 -47.632812 22.5625 -49.984375 30.03125 -49.984375 C 37.5 -49.984375 43.566406 -47.632812 48.234375 -42.9375 C 52.898438 -38.25 55.234375 -32.101562 55.234375 -24.5 C 55.234375 -16.894531 52.898438 -10.742188 48.234375 -6.046875 C 43.566406 -1.359375 37.5 0.984375 30.03125 0.984375 C 22.5625 0.984375 16.503906 -1.359375 11.859375 -6.046875 C 7.222656 -10.742188 4.90625 -16.894531 4.90625 -24.5 C 4.90625 -32.101562 7.222656 -38.25 11.859375 -42.9375 Z M 15.71875 -7.5625 C 19.332031 -3.269531 24.113281 -1.125 30.0625 -1.125 C 36.007812 -1.125 40.789062 -3.269531 44.40625 -7.5625 C 48.03125 -11.851562 49.84375 -17.5 49.84375 -24.5 C 49.84375 -29.125 49.023438 -33.207031 47.390625 -36.75 C 45.753906 -40.289062 43.429688 -43.03125 40.421875 -44.96875 C 37.410156 -46.90625 33.945312 -47.875 30.03125 -47.875 C 24.101562 -47.875 19.332031 -45.726562 15.71875 -41.4375 C 12.101562 -37.144531 10.296875 -31.5 10.296875 -24.5 C 10.296875 -17.5 12.101562 -11.851562 15.71875 -7.5625 Z M 15.71875 -7.5625 "/></g></g><g style="fill:rgb(0%,0%,0%);fill-opacity:1;"><g transform="translate(181.410843, 189.309729)"><path style="stroke:none;" d="M 29.328125 0.984375 C 21.859375 0.929688 15.800781 -1.425781 11.15625 -6.09375 C 6.519531 -10.757812 4.203125 -16.894531 4.203125 -24.5 C 4.203125 -32.101562 6.519531 -38.25 11.15625 -42.9375 C 15.800781 -47.632812 21.859375 -49.984375 29.328125 -49.984375 C 35.765625 -49.984375 41.4375 -48.394531 46.34375 -45.21875 L 47.734375 -35.34375 L 47.109375 -35.34375 C 46.078125 -39.363281 44.007812 -42.457031 40.90625 -44.625 C 37.8125 -46.789062 33.953125 -47.875 29.328125 -47.875 C 23.398438 -47.875 18.601562 -45.726562 14.9375 -41.4375 C 11.28125 -37.144531 9.453125 -31.5 9.453125 -24.5 C 9.453125 -17.5 11.28125 -11.863281 14.9375 -7.59375 C 18.601562 -3.320312 23.398438 -1.164062 29.328125 -1.125 C 32.359375 -1.125 35.238281 -1.660156 37.96875 -2.734375 C 40.695312 -3.804688 43.09375 -5.296875 45.15625 -7.203125 L 45.15625 -19.59375 C 45.15625 -20.625 44.835938 -21.40625 44.203125 -21.9375 C 43.578125 -22.476562 42.703125 -22.75 41.578125 -22.75 L 40.453125 -22.75 L 40.453125 -23.453125 L 54.1875 -23.453125 L 54.1875 -22.75 L 53.125 -22.75 C 51.957031 -22.75 51.070312 -22.476562 50.46875 -21.9375 C 49.863281 -21.40625 49.582031 -20.625 49.625 -19.59375 L 49.625 -8.046875 C 48.414062 -6.460938 46.96875 -5.039062 45.28125 -3.78125 C 43.601562 -2.519531 41.351562 -1.410156 38.53125 -0.453125 C 35.707031 0.503906 32.640625 0.984375 29.328125 0.984375 Z M 29.328125 0.984375 "/></g></g><g style="fill:rgb(0%,0%,0%);fill-opacity:1;"><g transform="translate(237.267781, 189.309729)"><path style="stroke:none;" d="M 51.453125 -48.296875 L 50.328125 -48.296875 C 49.347656 -48.296875 48.492188 -47.976562 47.765625 -47.34375 C 47.046875 -46.71875 46.664062 -45.941406 46.625 -45.015625 L 46.625 -17.296875 C 46.625 -11.828125 44.894531 -7.410156 41.4375 -4.046875 C 37.988281 -0.691406 33.394531 0.984375 27.65625 0.984375 C 21.914062 0.984375 17.257812 -0.679688 13.6875 -4.015625 C 10.113281 -7.359375 8.328125 -11.757812 8.328125 -17.21875 L 8.328125 -44.796875 C 8.328125 -46.203125 7.722656 -47.226562 6.515625 -47.875 C 5.953125 -48.15625 5.320312 -48.296875 4.625 -48.296875 L 3.5 -48.296875 L 3.5 -49 L 17.703125 -49 L 17.703125 -48.296875 L 16.59375 -48.296875 C 15.5625 -48.296875 14.695312 -47.976562 14 -47.34375 C 13.300781 -46.71875 12.925781 -45.914062 12.875 -44.9375 L 12.875 -18.203125 C 12.875 -13.109375 14.238281 -9 16.96875 -5.875 C 19.695312 -2.75 23.347656 -1.1875 27.921875 -1.1875 C 32.503906 -1.1875 36.21875 -2.664062 39.0625 -5.625 C 41.90625 -8.59375 43.328125 -12.484375 43.328125 -17.296875 L 43.328125 -44.9375 C 43.285156 -45.914062 42.910156 -46.71875 42.203125 -47.34375 C 41.503906 -47.976562 40.644531 -48.296875 39.625 -48.296875 L 38.5 -48.296875 L 38.5 -49 L 51.453125 -49 Z M 51.453125 -48.296875 "/></g></g><g style="fill:rgb(0%,0%,0%);fill-opacity:1;"><g transform="translate(292.214776, 189.309729)"><path style="stroke:none;" d="M 5.109375 -0.703125 C 6.328125 -0.703125 7.363281 -1.132812 8.21875 -2 C 9.082031 -2.863281 9.539062 -3.898438 9.59375 -5.109375 L 9.59375 -44.3125 C 9.445312 -45.425781 8.953125 -46.367188 8.109375 -47.140625 C 7.273438 -47.910156 6.273438 -48.296875 5.109375 -48.296875 L 4.265625 -48.296875 L 4.203125 -49 L 24.703125 -49 C 26.148438 -49 27.722656 -49.140625 29.421875 -49.421875 C 31.128906 -49.703125 32.335938 -49.984375 33.046875 -50.265625 L 33.046875 -41.4375 L 32.34375 -41.4375 L 32.34375 -42.703125 C 32.34375 -43.816406 31.957031 -44.769531 31.1875 -45.5625 C 30.414062 -46.363281 29.492188 -46.785156 28.421875 -46.828125 L 14.140625 -46.828125 L 14.140625 -25.203125 L 25.96875 -25.203125 C 26.90625 -25.242188 27.695312 -25.59375 28.34375 -26.25 C 29 -26.90625 29.328125 -27.722656 29.328125 -28.703125 L 29.328125 -29.6875 L 30.03125 -29.6875 L 30.03125 -18.625 L 29.328125 -18.625 L 29.328125 -19.671875 C 29.328125 -20.597656 29.007812 -21.390625 28.375 -22.046875 C 27.75 -22.703125 26.972656 -23.050781 26.046875 -23.09375 L 14.140625 -23.09375 L 14.140625 -2.171875 L 24.15625 -2.171875 C 27.601562 -2.171875 30.238281 -2.941406 32.0625 -4.484375 C 33.882812 -6.023438 35.398438 -8.3125 36.609375 -11.34375 L 37.3125 -11.34375 L 33.25 0 L 4.203125 0 L 4.203125 -0.703125 Z M 5.109375 -0.703125 "/></g></g><g style="fill:rgb(100%,8.628845%,8.628845%);fill-opacity:1;"><g transform="translate(120.835602, 216.259702)"><path style="stroke:none;" d="M 2.78125 0 L 1.796875 0 L 1.796875 -18 L 2.78125 -18 Z M 2.78125 0 "/></g></g><g style="fill:rgb(100%,8.628845%,8.628845%);fill-opacity:1;"><g transform="translate(126.523608, 216.259702)"><path style="stroke:none;" d="M 1.515625 -12.1875 C 1.515625 -12.414062 1.59375 -12.601562 1.75 -12.75 C 1.90625 -12.90625 2.085938 -12.984375 2.296875 -12.984375 C 2.503906 -12.984375 2.6875 -12.90625 2.84375 -12.75 C 3.007812 -12.601562 3.09375 -12.414062 3.09375 -12.1875 C 3.09375 -11.96875 3.007812 -11.78125 2.84375 -11.625 C 2.6875 -11.476562 2.503906 -11.40625 2.296875 -11.40625 C 2.085938 -11.40625 1.90625 -11.476562 1.75 -11.625 C 1.59375 -11.78125 1.515625 -11.96875 1.515625 -12.1875 Z M 2.78125 0 L 1.796875 0 L 1.796875 -9 L 2.78125 -9 Z M 2.78125 0 "/></g></g><g style="fill:rgb(100%,8.628845%,8.628845%);fill-opacity:1;"><g transform="translate(132.211614, 216.259702)"><path style="stroke:none;" d="M 7.84375 -9.21875 C 7.9375 -9.125 8.035156 -9.023438 8.140625 -8.921875 C 8.242188 -8.816406 8.347656 -8.707031 8.453125 -8.59375 C 7.859375 -8.050781 7.300781 -7.523438 6.78125 -7.015625 C 6.257812 -6.515625 5.703125 -5.992188 5.109375 -5.453125 C 5.785156 -4.535156 6.453125 -3.625 7.109375 -2.71875 C 7.765625 -1.820312 8.425781 -0.914062 9.09375 0 L 7.921875 0 C 7.328125 -0.800781 6.734375 -1.597656 6.140625 -2.390625 C 5.546875 -3.179688 4.960938 -3.976562 4.390625 -4.78125 C 4.117188 -4.539062 3.859375 -4.296875 3.609375 -4.046875 C 3.359375 -3.796875 3.109375 -3.5625 2.859375 -3.34375 L 2.859375 0 L 1.84375 0 L 1.84375 -18 L 2.859375 -18 L 2.859375 -4.5625 C 3.722656 -5.375 4.550781 -6.144531 5.34375 -6.875 C 6.144531 -7.613281 6.976562 -8.394531 7.84375 -9.21875 Z M 7.84375 -9.21875 "/></g></g><g style="fill:rgb(100%,8.628845%,8.628845%);fill-opacity:1;"><g transform="translate(144.187633, 216.259702)"><path style="stroke:none;" d="M 5.5625 -8.234375 C 5.082031 -8.234375 4.625 -8.148438 4.1875 -7.984375 C 3.757812 -7.816406 3.382812 -7.578125 3.0625 -7.265625 C 2.75 -6.960938 2.488281 -6.609375 2.28125 -6.203125 C 2.082031 -5.804688 1.960938 -5.378906 1.921875 -4.921875 C 1.898438 -4.722656 1.894531 -4.53125 1.90625 -4.34375 C 1.914062 -4.164062 1.9375 -3.988281 1.96875 -3.8125 C 3.039062 -4.25 4.113281 -4.675781 5.1875 -5.09375 C 6.257812 -5.519531 7.335938 -5.953125 8.421875 -6.390625 C 8.148438 -6.929688 7.757812 -7.375 7.25 -7.71875 C 6.738281 -8.0625 6.175781 -8.234375 5.5625 -8.234375 Z M 9.703125 -5.828125 C 8.453125 -5.335938 7.207031 -4.847656 5.96875 -4.359375 C 4.738281 -3.867188 3.5 -3.375 2.25 -2.875 C 2.519531 -2.269531 2.953125 -1.773438 3.546875 -1.390625 C 4.140625 -1.003906 4.8125 -0.8125 5.5625 -0.8125 C 6.0625 -0.8125 6.523438 -0.898438 6.953125 -1.078125 C 7.390625 -1.253906 7.769531 -1.503906 8.09375 -1.828125 C 8.195312 -1.691406 8.296875 -1.5625 8.390625 -1.4375 C 8.492188 -1.320312 8.601562 -1.203125 8.71875 -1.078125 C 8.300781 -0.691406 7.828125 -0.382812 7.296875 -0.15625 C 6.765625 0.0625 6.1875 0.171875 5.5625 0.171875 C 4.90625 0.171875 4.289062 0.046875 3.71875 -0.203125 C 3.15625 -0.453125 2.660156 -0.785156 2.234375 -1.203125 C 1.816406 -1.617188 1.484375 -2.109375 1.234375 -2.671875 C 0.984375 -3.242188 0.859375 -3.859375 0.859375 -4.515625 C 0.859375 -5.148438 0.984375 -5.753906 1.234375 -6.328125 C 1.484375 -6.910156 1.816406 -7.410156 2.234375 -7.828125 C 2.660156 -8.242188 3.15625 -8.570312 3.71875 -8.8125 C 4.289062 -9.0625 4.90625 -9.1875 5.5625 -9.1875 C 6.039062 -9.1875 6.492188 -9.101562 6.921875 -8.9375 C 7.359375 -8.769531 7.753906 -8.535156 8.109375 -8.234375 C 8.472656 -7.941406 8.789062 -7.59375 9.0625 -7.1875 C 9.34375 -6.78125 9.554688 -6.328125 9.703125 -5.828125 Z M 9.703125 -5.828125 "/></g></g><g style="fill:rgb(100%,8.628845%,8.628845%);fill-opacity:1;"><g transform="translate(156.211651, 216.259702)"><path style="stroke:none;" d=""/></g></g><g style="fill:rgb(100%,8.628845%,8.628845%);fill-opacity:1;"><g transform="translate(164.611665, 216.259702)"><path style="stroke:none;" d="M 2.46875 -9 L 3.390625 -9 L 3.390625 -8.15625 C 3.390625 -7.882812 3.390625 -7.632812 3.390625 -7.40625 C 3.390625 -7.1875 3.394531 -6.941406 3.40625 -6.671875 C 3.726562 -7.421875 4.238281 -8.023438 4.9375 -8.484375 C 5.644531 -8.953125 6.445312 -9.1875 7.34375 -9.1875 C 8.21875 -9.1875 8.910156 -8.9375 9.421875 -8.4375 C 9.941406 -7.945312 10.21875 -7.300781 10.25 -6.5 L 10.25 0 L 9.234375 0 L 9.234375 -6.234375 C 9.203125 -6.753906 9.015625 -7.203125 8.671875 -7.578125 C 8.328125 -7.960938 7.820312 -8.171875 7.15625 -8.203125 C 6.675781 -8.203125 6.210938 -8.117188 5.765625 -7.953125 C 5.316406 -7.785156 4.921875 -7.554688 4.578125 -7.265625 C 4.242188 -6.984375 3.976562 -6.640625 3.78125 -6.234375 C 3.582031 -5.835938 3.484375 -5.398438 3.484375 -4.921875 L 3.484375 0 L 2.46875 0 Z M 2.46875 -9 "/></g></g><g style="fill:rgb(100%,8.628845%,8.628845%);fill-opacity:1;"><g transform="translate(177.691683, 216.259702)"><path style="stroke:none;" d="M 0.859375 -4.515625 C 0.859375 -5.148438 0.984375 -5.753906 1.234375 -6.328125 C 1.484375 -6.910156 1.816406 -7.410156 2.234375 -7.828125 C 2.660156 -8.253906 3.15625 -8.59375 3.71875 -8.84375 C 4.289062 -9.09375 4.90625 -9.21875 5.5625 -9.21875 C 6.21875 -9.21875 6.832031 -9.09375 7.40625 -8.84375 C 7.988281 -8.59375 8.492188 -8.253906 8.921875 -7.828125 C 9.359375 -7.410156 9.695312 -6.910156 9.9375 -6.328125 C 10.1875 -5.753906 10.3125 -5.148438 10.3125 -4.515625 C 10.3125 -3.859375 10.1875 -3.242188 9.9375 -2.671875 C 9.695312 -2.109375 9.359375 -1.617188 8.921875 -1.203125 C 8.492188 -0.785156 7.988281 -0.453125 7.40625 -0.203125 C 6.832031 0.046875 6.21875 0.171875 5.5625 0.171875 C 4.90625 0.171875 4.289062 0.046875 3.71875 -0.203125 C 3.15625 -0.453125 2.660156 -0.785156 2.234375 -1.203125 C 1.816406 -1.617188 1.484375 -2.109375 1.234375 -2.671875 C 0.984375 -3.242188 0.859375 -3.859375 0.859375 -4.515625 Z M 1.875 -4.515625 C 1.875 -4.003906 1.96875 -3.523438 2.15625 -3.078125 C 2.351562 -2.628906 2.617188 -2.234375 2.953125 -1.890625 C 3.285156 -1.554688 3.675781 -1.289062 4.125 -1.09375 C 4.570312 -0.90625 5.050781 -0.8125 5.5625 -0.8125 C 6.082031 -0.8125 6.566406 -0.90625 7.015625 -1.09375 C 7.460938 -1.289062 7.851562 -1.554688 8.1875 -1.890625 C 8.519531 -2.234375 8.785156 -2.628906 8.984375 -3.078125 C 9.179688 -3.523438 9.28125 -4.003906 9.28125 -4.515625 C 9.28125 -5.023438 9.179688 -5.503906 8.984375 -5.953125 C 8.785156 -6.398438 8.519531 -6.789062 8.1875 -7.125 C 7.851562 -7.457031 7.460938 -7.722656 7.015625 -7.921875 C 6.566406 -8.128906 6.082031 -8.234375 5.5625 -8.234375 C 5.050781 -8.234375 4.570312 -8.128906 4.125 -7.921875 C 3.675781 -7.722656 3.285156 -7.457031 2.953125 -7.125 C 2.617188 -6.789062 2.351562 -6.398438 2.15625 -5.953125 C 1.96875 -5.503906 1.875 -5.023438 1.875 -4.515625 Z M 1.875 -4.515625 "/></g></g><g style="fill:rgb(100%,8.628845%,8.628845%);fill-opacity:1;"><g transform="translate(190.195709, 216.259702)"><path style="stroke:none;" d=""/></g></g><g style="fill:rgb(100%,8.628845%,8.628845%);fill-opacity:1;"><g transform="translate(198.595723, 216.259702)"><path style="stroke:none;" d="M 0.859375 -4.515625 C 0.859375 -5.148438 0.984375 -5.753906 1.234375 -6.328125 C 1.484375 -6.910156 1.816406 -7.410156 2.234375 -7.828125 C 2.660156 -8.253906 3.15625 -8.59375 3.71875 -8.84375 C 4.289062 -9.09375 4.90625 -9.21875 5.5625 -9.21875 C 6.21875 -9.21875 6.832031 -9.09375 7.40625 -8.84375 C 7.988281 -8.59375 8.492188 -8.253906 8.921875 -7.828125 C 9.359375 -7.410156 9.695312 -6.910156 9.9375 -6.328125 C 10.1875 -5.753906 10.3125 -5.148438 10.3125 -4.515625 C 10.3125 -3.859375 10.1875 -3.242188 9.9375 -2.671875 C 9.695312 -2.109375 9.359375 -1.617188 8.921875 -1.203125 C 8.492188 -0.785156 7.988281 -0.453125 7.40625 -0.203125 C 6.832031 0.046875 6.21875 0.171875 5.5625 0.171875 C 4.90625 0.171875 4.289062 0.046875 3.71875 -0.203125 C 3.15625 -0.453125 2.660156 -0.785156 2.234375 -1.203125 C 1.816406 -1.617188 1.484375 -2.109375 1.234375 -2.671875 C 0.984375 -3.242188 0.859375 -3.859375 0.859375 -4.515625 Z M 1.875 -4.515625 C 1.875 -4.003906 1.96875 -3.523438 2.15625 -3.078125 C 2.351562 -2.628906 2.617188 -2.234375 2.953125 -1.890625 C 3.285156 -1.554688 3.675781 -1.289062 4.125 -1.09375 C 4.570312 -0.90625 5.050781 -0.8125 5.5625 -0.8125 C 6.082031 -0.8125 6.566406 -0.90625 7.015625 -1.09375 C 7.460938 -1.289062 7.851562 -1.554688 8.1875 -1.890625 C 8.519531 -2.234375 8.785156 -2.628906 8.984375 -3.078125 C 9.179688 -3.523438 9.28125 -4.003906 9.28125 -4.515625 C 9.28125 -5.023438 9.179688 -5.503906 8.984375 -5.953125 C 8.785156 -6.398438 8.519531 -6.789062 8.1875 -7.125 C 7.851562 -7.457031 7.460938 -7.722656 7.015625 -7.921875 C 6.566406 -8.128906 6.082031 -8.234375 5.5625 -8.234375 C 5.050781 -8.234375 4.570312 -8.128906 4.125 -7.921875 C 3.675781 -7.722656 3.285156 -7.457031 2.953125 -7.125 C 2.617188 -6.789062 2.351562 -6.398438 2.15625 -5.953125 C 1.96875 -5.503906 1.875 -5.023438 1.875 -4.515625 Z M 1.875 -4.515625 "/></g></g><g style="fill:rgb(100%,8.628845%,8.628845%);fill-opacity:1;"><g transform="translate(211.099748, 216.259702)"><path style="stroke:none;" d="M 2.96875 -14.859375 L 3.984375 -14.859375 L 3.984375 -8.96875 L 6.75 -8.96875 L 6.75 -7.984375 L 3.984375 -7.984375 L 3.984375 0 L 2.96875 0 L 2.96875 -7.984375 L 0.890625 -7.984375 L 0.890625 -8.96875 L 2.96875 -8.96875 Z M 2.96875 -14.859375 "/></g></g><g style="fill:rgb(100%,8.628845%,8.628845%);fill-opacity:1;"><g transform="translate(219.187768, 216.259702)"><path style="stroke:none;" d="M 2.46875 -18 L 3.484375 -18 L 3.484375 -7.75 L 3.40625 -6.671875 C 3.726562 -7.441406 4.234375 -8.046875 4.921875 -8.484375 C 5.617188 -8.921875 6.425781 -9.15625 7.34375 -9.1875 C 8.21875 -9.1875 8.910156 -8.9375 9.421875 -8.4375 C 9.941406 -7.945312 10.21875 -7.300781 10.25 -6.5 L 10.25 0 L 9.234375 0 L 9.234375 -6.234375 C 9.203125 -6.753906 9.015625 -7.203125 8.671875 -7.578125 C 8.328125 -7.960938 7.820312 -8.171875 7.15625 -8.203125 C 6.675781 -8.203125 6.210938 -8.117188 5.765625 -7.953125 C 5.316406 -7.785156 4.921875 -7.554688 4.578125 -7.265625 C 4.242188 -6.984375 3.976562 -6.640625 3.78125 -6.234375 C 3.582031 -5.835938 3.484375 -5.398438 3.484375 -4.921875 L 3.484375 0 L 2.46875 0 Z M 2.46875 -18 "/></g></g><g style="fill:rgb(100%,8.628845%,8.628845%);fill-opacity:1;"><g transform="translate(232.387795, 216.259702)"><path style="stroke:none;" d="M 5.5625 -8.234375 C 5.082031 -8.234375 4.625 -8.148438 4.1875 -7.984375 C 3.757812 -7.816406 3.382812 -7.578125 3.0625 -7.265625 C 2.75 -6.960938 2.488281 -6.609375 2.28125 -6.203125 C 2.082031 -5.804688 1.960938 -5.378906 1.921875 -4.921875 C 1.898438 -4.722656 1.894531 -4.53125 1.90625 -4.34375 C 1.914062 -4.164062 1.9375 -3.988281 1.96875 -3.8125 C 3.039062 -4.25 4.113281 -4.675781 5.1875 -5.09375 C 6.257812 -5.519531 7.335938 -5.953125 8.421875 -6.390625 C 8.148438 -6.929688 7.757812 -7.375 7.25 -7.71875 C 6.738281 -8.0625 6.175781 -8.234375 5.5625 -8.234375 Z M 9.703125 -5.828125 C 8.453125 -5.335938 7.207031 -4.847656 5.96875 -4.359375 C 4.738281 -3.867188 3.5 -3.375 2.25 -2.875 C 2.519531 -2.269531 2.953125 -1.773438 3.546875 -1.390625 C 4.140625 -1.003906 4.8125 -0.8125 5.5625 -0.8125 C 6.0625 -0.8125 6.523438 -0.898438 6.953125 -1.078125 C 7.390625 -1.253906 7.769531 -1.503906 8.09375 -1.828125 C 8.195312 -1.691406 8.296875 -1.5625 8.390625 -1.4375 C 8.492188 -1.320312 8.601562 -1.203125 8.71875 -1.078125 C 8.300781 -0.691406 7.828125 -0.382812 7.296875 -0.15625 C 6.765625 0.0625 6.1875 0.171875 5.5625 0.171875 C 4.90625 0.171875 4.289062 0.046875 3.71875 -0.203125 C 3.15625 -0.453125 2.660156 -0.785156 2.234375 -1.203125 C 1.816406 -1.617188 1.484375 -2.109375 1.234375 -2.671875 C 0.984375 -3.242188 0.859375 -3.859375 0.859375 -4.515625 C 0.859375 -5.148438 0.984375 -5.753906 1.234375 -6.328125 C 1.484375 -6.910156 1.816406 -7.410156 2.234375 -7.828125 C 2.660156 -8.242188 3.15625 -8.570312 3.71875 -8.8125 C 4.289062 -9.0625 4.90625 -9.1875 5.5625 -9.1875 C 6.039062 -9.1875 6.492188 -9.101562 6.921875 -8.9375 C 7.359375 -8.769531 7.753906 -8.535156 8.109375 -8.234375 C 8.472656 -7.941406 8.789062 -7.59375 9.0625 -7.1875 C 9.34375 -6.78125 9.554688 -6.328125 9.703125 -5.828125 Z M 9.703125 -5.828125 "/></g></g><g style="fill:rgb(100%,8.628845%,8.628845%);fill-opacity:1;"><g transform="translate(244.411816, 216.259702)"><path style="stroke:none;" d="M 7.109375 -8.203125 C 6.597656 -8.191406 6.117188 -8.101562 5.671875 -7.9375 C 5.234375 -7.769531 4.851562 -7.539062 4.53125 -7.25 C 4.21875 -6.957031 3.960938 -6.609375 3.765625 -6.203125 C 3.578125 -5.804688 3.484375 -5.378906 3.484375 -4.921875 L 3.484375 0 L 2.46875 0 L 2.46875 -9 L 3.390625 -9 L 3.390625 -8.15625 C 3.390625 -7.882812 3.390625 -7.632812 3.390625 -7.40625 C 3.390625 -7.1875 3.394531 -6.941406 3.40625 -6.671875 C 3.757812 -7.453125 4.289062 -8.0625 5 -8.5 C 5.71875 -8.945312 6.441406 -9.175781 7.171875 -9.1875 Z M 7.109375 -8.203125 "/></g></g></g></svg>